<?xml version="1.0" encoding="utf-8"?>
<!-- Generator: Adobe Illustrator 27.1.0, SVG Export Plug-In . SVG Version: 6.00 Build 0)  -->
<svg version="1.1" id="Capa_1" xmlns="http://www.w3.org/2000/svg" xmlns:xlink="http://www.w3.org/1999/xlink" x="0px" y="0px"
	 viewBox="0 0 535.6 543.4" style="enable-background:new 0 0 535.6 543.4;" xml:space="preserve">
<style type="text/css">
	.st0{fill:#E82127;}
</style>
<g>
	<path class="st0" d="M267.8,538.1l74.9-421.4c71.4,0,94,7.8,97.2,39.8c0,0,47.9-17.9,72.1-54.1C417.8,58.7,323,56.7,323,56.7
		L267.7,124l0.1,0l-55.3-67.3c0,0-94.8,2-189,45.7c24.1,36.3,72.1,54.1,72.1,54.1c3.3-32,25.8-39.8,96.7-39.9L267.8,538.1"/>
	<path class="st0" d="M267.8,37.2C344,36.7,431.3,49,520.6,88c11.9-21.5,15-31,15-31C438,18.3,346.5,5.1,267.8,4.8
		C189.1,5.1,97.6,18.3,0,57c0,0,4.4,11.7,15,31C104.3,49,191.6,36.7,267.8,37.2L267.8,37.2"/>
</g>
</svg>
